<?xml version="1.0" standalone="no"?>
<!DOCTYPE svg PUBLIC "-//W3C//DTD SVG 20010904//EN"
 "http://www.w3.org/TR/2001/REC-SVG-20010904/DTD/svg10.dtd">
<svg version="1.0" xmlns="http://www.w3.org/2000/svg"
 width="300.000000pt" height="300.000000pt" viewBox="0 0 300.000000 300.000000"
 preserveAspectRatio="xMidYMid meet">
<metadata>
Created by potrace 1.11, written by Peter Selinger 2001-2013
</metadata>
<g transform="translate(0.000000,300.000000) scale(0.100000,-0.100000)"
fill="#000000" stroke="none">
<path d="M1493 2833 c1 -12 4 -20 7 -19 8 4 39 -32 33 -38 -4 -3 -1 -6 6 -6 7
0 9 -4 6 -10 -3 -5 1 -10 9 -10 14 0 21 -13 14 -23 -2 -2 5 -12 15 -22 10 -9
16 -24 13 -32 -3 -8 -2 -12 3 -9 5 3 11 -8 13 -24 3 -16 3 -28 1 -26 -3 2 -18
0 -34 -4 -18 -5 -27 -5 -24 1 4 5 -9 7 -29 4 -22 -2 -36 0 -36 7 0 6 -7 5 -17
-3 -15 -12 -16 -12 -8 1 8 13 7 13 -8 1 -9 -7 -17 -9 -17 -4 0 10 -77 9 -87
-1 -3 -3 -13 0 -21 7 -13 9 -14 9 -8 0 4 -7 3 -13 -3 -13 -5 0 -12 6 -14 13
-4 8 -6 9 -6 0 -1 -7 -11 -10 -26 -7 -16 3 -25 0 -25 -8 0 -9 -3 -8 -10 2 -5
8 -10 10 -10 4 0 -7 -13 -10 -31 -8 -16 2 -28 0 -25 -5 8 -12 -27 -8 -36 4 -5
6 -8 3 -8 -7 0 -11 -6 -16 -20 -13 -11 2 -22 -1 -26 -7 -4 -6 -10 -5 -15 3 -7
11 -9 10 -9 -3 0 -11 -5 -15 -14 -12 -8 3 -17 0 -21 -5 -3 -6 -11 -9 -16 -6
-5 4 -9 1 -9 -4 0 -6 -3 -10 -7 -10 -20 3 -34 -2 -28 -11 3 -6 -1 -7 -9 -4 -9
3 -16 1 -16 -4 0 -10 -29 -24 -40 -19 -8 3 -147 -137 -143 -145 2 -5 0 -8 -5
-8 -6 0 -13 -11 -16 -25 -4 -14 -11 -25 -17 -25 -6 0 -7 -4 -4 -10 3 -5 2 -10
-4 -10 -6 0 -8 -7 -5 -15 4 -8 1 -15 -5 -15 -6 0 -11 -9 -11 -20 0 -11 -5 -20
-10 -20 -6 0 -10 -6 -9 -12 3 -27 -1 -39 -13 -32 -7 5 -8 3 -2 -7 11 -18 13
-60 3 -53 -4 2 -6 14 -4 26 3 11 1 17 -3 14 -4 -4 -7 -63 -8 -131 0 -105 2
-122 15 -117 10 4 13 1 8 -12 -4 -9 -3 -15 2 -12 5 3 12 -1 15 -10 4 -10 2
-13 -7 -9 -6 4 -4 0 6 -8 10 -9 19 -19 19 -24 1 -20 18 -53 28 -53 5 0 10 -9
10 -19 0 -11 5 -23 12 -27 7 -5 9 -2 4 7 -4 8 -1 5 6 -5 7 -10 30 -37 51 -59
20 -22 37 -45 37 -51 0 -6 4 -5 9 3 7 11 10 9 16 -8 3 -12 11 -19 16 -16 5 4
12 -1 15 -9 3 -9 15 -16 26 -16 10 0 16 -4 13 -10 -3 -5 1 -10 9 -10 8 0 25
-10 37 -22 12 -13 19 -16 15 -8 -4 8 1 6 11 -5 10 -11 25 -20 33 -20 8 0 14
-6 13 -12 -2 -7 0 -12 5 -12 4 1 21 1 37 0 23 -1 27 -3 15 -11 -12 -8 -11 -10
6 -10 11 0 24 -3 28 -8 4 -4 11 -7 14 -7 4 -1 18 -7 31 -14 19 -11 22 -11 16
1 -5 7 3 3 17 -10 15 -14 31 -20 41 -16 10 3 17 1 17 -6 0 -6 4 -8 10 -5 6 3
7 -1 4 -9 -3 -9 -9 -15 -12 -15 -15 2 -52 -14 -52 -22 0 -5 -8 -6 -17 -2 -10
3 -15 3 -11 -2 8 -9 -36 -35 -58 -35 -8 0 -14 -5 -14 -11 0 -5 -4 -8 -9 -5 -5
3 -14 -1 -21 -9 -7 -8 -16 -12 -21 -9 -5 3 -9 0 -9 -5 0 -6 -3 -10 -7 -9 -5 1
-23 -6 -40 -15 -18 -10 -33 -15 -33 -12 0 3 -10 -4 -22 -15 -13 -12 -24 -16
-26 -10 -2 6 -13 1 -23 -11 -11 -13 -19 -17 -19 -9 0 9 -6 8 -20 -5 -11 -10
-20 -15 -20 -11 0 4 -7 0 -16 -8 -8 -9 -20 -14 -25 -11 -5 4 -9 2 -9 -4 0 -5
-9 -8 -20 -6 -13 3 -18 0 -14 -7 5 -8 1 -9 -10 -5 -10 4 -15 3 -11 -3 5 -8
-13 -14 -36 -12 -3 1 -4 -10 -1 -24 3 -16 9 -23 18 -20 8 3 14 0 14 -6 0 -7 7
-3 15 8 8 11 15 14 15 7 0 -7 5 -13 11 -13 5 0 8 4 4 9 -3 5 -1 12 5 16 5 3
10 2 10 -3 0 -6 9 -8 20 -5 11 3 18 8 16 12 -3 4 15 6 39 6 26 -1 41 3 38 8
-4 6 5 8 21 5 14 -3 29 -1 32 4 3 5 13 7 21 4 8 -3 11 -1 8 4 -3 6 3 10 14 10
12 0 21 6 21 13 0 7 7 4 15 -7 13 -17 15 -18 15 -3 0 10 8 18 20 19 11 0 26 1
33 2 6 1 14 4 17 8 3 4 20 8 37 10 17 1 29 6 27 10 -3 4 4 9 15 9 30 2 34 3
50 13 10 7 12 5 7 -5 -4 -8 -2 -7 6 2 7 9 21 15 31 13 10 -1 21 4 24 13 5 12
7 12 14 1 6 -8 9 -9 9 -2 0 7 7 15 16 18 10 4 13 2 8 -7 -6 -9 -5 -9 8 0 8 7
18 10 21 6 4 -3 7 -1 7 7 0 10 4 10 17 -1 11 -10 14 -10 9 -1 -4 7 -2 12 4 12
6 0 9 4 6 9 -4 5 2 7 13 4 10 -3 22 0 25 6 10 16 42 13 56 -4 7 -9 15 -13 18
-11 2 3 16 -7 31 -22 14 -16 34 -31 44 -35 9 -3 17 -13 17 -21 0 -7 7 -17 16
-20 8 -3 12 -10 9 -16 -3 -5 -1 -10 4 -10 6 0 11 -7 11 -15 0 -8 5 -15 11 -15
6 0 9 -7 5 -15 -3 -8 0 -14 7 -12 7 1 11 -6 9 -15 -1 -9 2 -19 7 -23 6 -3 8
-12 4 -20 -3 -9 1 -15 8 -15 11 0 11 -3 -1 -10 -12 -7 -12 -10 -1 -10 7 0 11
-6 8 -14 -3 -8 -1 -17 6 -20 7 -2 3 -5 -8 -5 -17 -1 -17 -3 -5 -11 17 -11 20
-32 5 -42 -7 -5 -6 -8 1 -8 7 0 9 -10 6 -25 -2 -15 -9 -22 -16 -18 -6 3 -6 0
2 -8 15 -16 16 -33 1 -23 -8 5 -8 1 0 -14 8 -15 7 -23 -4 -32 -11 -9 -12 -16
-5 -25 7 -9 6 -16 -5 -25 -8 -7 -15 -20 -15 -29 0 -9 -6 -23 -12 -30 -11 -11
-10 -12 1 -6 9 5 8 -1 -4 -18 -9 -14 -17 -30 -18 -34 -1 -4 -6 -7 -10 -5 -5 1
-6 -1 -3 -6 6 -11 -15 -72 -25 -72 -4 0 -10 -11 -13 -25 -4 -14 -11 -25 -17
-25 -6 0 -7 -5 -4 -10 3 -6 -1 -13 -9 -16 -9 -3 -13 -10 -10 -16 3 -5 -2 -16
-12 -24 -11 -9 -13 -12 -5 -8 9 5 12 3 7 -4 -4 -7 -14 -12 -22 -12 -8 0 -13
-6 -12 -12 2 -7 -3 -12 -10 -10 -8 1 -10 -2 -7 -8 4 -6 -1 -20 -10 -30 -9 -10
-14 -24 -9 -31 4 -7 3 -10 -2 -7 -5 2 -23 -10 -40 -27 -29 -30 -30 -33 -12
-44 10 -6 18 -8 17 -4 -5 28 2 45 16 39 8 -3 15 0 15 6 0 6 12 21 28 34 15 13
24 24 20 24 -5 0 10 18 32 40 22 22 37 40 34 40 -4 0 10 16 30 35 21 19 34 35
29 35 -4 1 3 10 16 20 13 11 19 20 15 20 -5 0 -1 5 9 11 9 6 15 14 12 19 -3 4
2 10 10 14 8 3 15 12 15 21 0 8 7 15 15 15 8 0 14 3 14 8 -4 21 3 32 19 32 14
0 15 2 2 10 -13 8 -11 11 7 16 13 4 20 11 16 20 -3 8 0 14 7 14 6 0 8 5 5 10
-3 6 1 13 9 16 9 3 13 10 10 15 -3 5 -1 9 4 9 9 0 25 37 23 52 -1 5 4 8 10 8
6 0 8 7 5 16 -3 8 -2 12 4 9 6 -3 10 3 10 14 0 12 5 21 12 21 6 0 9 3 5 6 -3
3 3 25 13 49 10 24 16 46 13 49 -4 3 -1 6 5 6 6 0 9 7 6 15 -4 8 -1 15 6 15 6
0 8 5 5 10 -4 6 -1 18 7 27 11 15 11 16 -6 9 -20 -7 -20 -7 0 15 11 14 13 19
4 14 -13 -7 -13 -6 -2 7 9 12 10 18 2 23 -8 5 -8 11 1 21 9 11 8 14 -2 14 -11
0 -11 2 1 10 10 6 11 10 3 10 -7 0 -13 5 -13 11 0 5 6 7 13 3 10 -6 10 -4 0 7
-7 7 -13 22 -13 32 0 11 -8 26 -17 34 -17 14 -17 14 2 9 20 -6 20 -6 1 9 -11
8 -16 15 -10 15 5 0 1 7 -9 14 -10 8 -16 18 -15 23 2 5 -11 23 -29 40 -17 17
-29 34 -26 37 4 3 2 6 -4 6 -15 0 -12 28 4 34 8 3 12 2 9 -2 -3 -5 1 -9 9 -9
8 0 13 5 12 11 -1 6 10 10 26 10 15 -1 27 4 27 11 0 7 10 11 25 10 14 -2 23 1
19 6 -3 5 3 9 13 9 11 0 25 6 32 13 11 9 12 9 7 0 -5 -9 -2 -11 8 -7 9 3 13
10 10 15 -3 5 0 9 6 9 7 0 8 6 1 19 -6 10 -7 22 -3 26 4 5 1 5 -5 1 -9 -5 -13
0 -13 12 0 11 -10 27 -22 36 -13 9 -16 14 -8 11 8 -4 5 2 -7 13 -12 11 -19 23
-15 27 4 5 -1 5 -11 2 -10 -4 -16 -3 -13 2 3 4 -8 20 -24 35 -17 14 -30 24
-30 21 0 -4 -11 5 -24 19 -13 15 -31 26 -41 26 -10 0 -15 5 -12 14 4 10 0 12
-15 8 -16 -4 -19 -2 -13 8 6 10 4 12 -8 7 -9 -3 -18 -1 -21 6 -5 9 -7 9 -12
-1 -3 -6 -11 -9 -16 -6 -6 4 -8 2 -4 -4 3 -6 -1 -17 -10 -26 -8 -9 -12 -20 -9
-26 3 -5 -2 -10 -11 -10 -10 0 -15 -2 -12 -5 8 -8 -115 -132 -125 -127 -5 2
-11 -6 -14 -17 -5 -18 -8 -19 -21 -9 -13 11 -14 11 -7 -2 7 -13 6 -13 -7 -2
-9 7 -29 14 -46 15 -16 1 -28 5 -25 10 3 6 -19 9 -43 6 -4 0 -11 5 -15 13 -7
11 -9 11 -9 0 0 -10 -4 -10 -15 2 -9 8 -22 13 -29 10 -8 -3 -17 0 -21 6 -5 8
-11 8 -21 -1 -12 -10 -15 -10 -12 2 2 8 -3 13 -9 12 -7 -2 -13 1 -13 5 0 4
-10 9 -22 9 -13 1 -24 7 -26 13 -2 5 -8 8 -13 4 -5 -3 -9 0 -9 6 0 6 -4 8 -10
5 -5 -3 -10 -1 -10 4 0 6 -7 11 -15 11 -8 0 -15 5 -15 10 0 6 -6 10 -13 10
-16 0 -108 86 -100 94 4 3 -5 6 -18 6 -19 0 -21 2 -9 10 8 5 11 10 5 10 -12 1
-61 79 -58 91 2 5 -2 9 -9 9 -6 0 -8 3 -5 7 4 3 0 17 -9 31 -9 13 -12 22 -6
18 5 -3 12 1 16 9 3 8 10 15 15 15 6 0 8 -7 5 -15 -8 -20 6 -19 23 3 8 9 12
12 8 5 -4 -9 3 -8 21 2 15 8 32 11 37 8 6 -3 7 -1 3 5 -5 8 3 12 23 12 18 0
31 5 31 13 0 9 3 8 9 -2 6 -10 10 -10 16 -1 6 9 10 9 16 -1 7 -12 9 -12 9 0 0
7 6 11 14 8 8 -3 17 -1 20 6 3 9 5 9 5 0 1 -7 10 -9 29 -4 19 5 31 3 40 -8 8
-9 11 -11 8 -4 -4 8 4 11 23 11 19 -1 28 -5 24 -12 -3 -6 0 -5 8 2 7 6 17 12
22 12 4 0 5 -6 1 -12 -6 -10 -5 -10 8 0 12 10 18 10 27 -2 6 -7 24 -12 41 -10
19 2 30 -1 30 -9 0 -8 4 -7 10 3 7 11 10 11 10 2 0 -7 5 -10 10 -7 6 3 10 2
10 -3 0 -5 11 -8 25 -7 18 2 25 -2 26 -13 0 -10 3 -12 6 -5 3 9 11 8 29 -4 24
-15 26 -15 42 2 9 10 11 15 5 11 -7 -4 -13 -2 -13 4 0 6 -4 9 -8 6 -4 -2 -9 6
-10 20 -1 13 3 24 9 24 5 0 8 4 5 8 -3 5 1 9 9 9 8 0 11 -5 8 -11 -3 -6 0 -5
8 2 14 13 43 17 35 4 -2 -4 4 -8 14 -8 10 0 17 3 14 7 -4 8 55 -12 75 -25 10
-7 12 -6 6 4 -6 9 -1 8 14 -3 13 -8 30 -13 38 -10 7 3 22 -2 32 -11 10 -9 22
-16 27 -14 5 1 19 -3 32 -10 12 -7 26 -11 31 -8 5 3 14 -1 21 -9 7 -8 16 -12
21 -9 5 3 9 -1 9 -8 0 -9 3 -9 10 2 8 13 10 13 10 -2 0 -9 5 -20 12 -24 7 -4
8 -3 4 4 -4 7 -2 12 3 12 6 0 11 -6 11 -12 0 -9 4 -8 10 2 8 13 10 12 10 -3 0
-10 4 -15 10 -12 5 3 20 -1 33 -10 13 -8 27 -12 30 -8 4 3 7 0 7 -7 0 -7 3
-10 7 -7 3 4 15 -1 26 -10 11 -10 17 -12 13 -5 -12 20 8 14 24 -8 15 -21 36
-28 24 -8 -4 6 8 0 27 -15 l35 -26 0 24 c0 13 -3 22 -7 19 -8 -4 -60 34 -72
53 -4 7 -13 13 -18 13 -6 0 -24 14 -40 31 -16 17 -29 28 -29 25 0 -4 -12 4
-27 18 -15 14 -30 23 -35 20 -4 -3 -8 3 -8 12 0 10 -3 14 -7 11 -3 -4 -12 1
-20 11 -9 10 -11 11 -7 2 7 -13 5 -13 -9 -1 -9 7 -14 18 -10 24 3 6 1 7 -5 3
-6 -3 -15 2 -21 11 -7 13 -10 14 -11 4 0 -10 -6 -7 -19 7 -10 12 -24 22 -30
22 -7 0 -9 5 -6 10 4 6 3 9 -2 8 -12 -4 -73 25 -73 34 0 5 -7 8 -15 8 -8 0
-15 5 -15 11 0 5 -4 8 -8 5 -5 -3 -18 2 -28 12 -10 9 -23 17 -29 18 -24 3 -55
17 -55 26 0 5 -5 6 -11 3 -6 -4 -17 1 -25 11 -9 11 -12 12 -8 4 6 -12 4 -13
-7 -2 -7 6 -21 12 -32 12 -10 0 -16 4 -13 9 3 5 -4 9 -17 10 -50 1 -58 4 -52
20 4 11 3 13 -5 5 -12 -12 -72 -6 -64 7 3 5 -6 5 -20 -1 -14 -5 -28 -5 -31 -1
-6 11 -131 9 -141 -2 -4 -4 -14 -1 -22 6 -13 9 -14 9 -8 0 5 -9 -1 -13 -18
-13 -14 0 -26 -6 -26 -12 0 -10 -3 -9 -9 1 -6 9 -10 10 -12 2 -3 -7 -14 -13
-26 -14 -12 0 -19 -5 -16 -11 4 -5 -1 -7 -11 -3 -9 4 -14 3 -11 -2 3 -5 -4
-12 -14 -16 -22 -7 -111 -93 -111 -108 0 -5 -10 -23 -22 -40 -12 -17 -16 -27
-7 -22 8 5 7 0 -4 -12 -13 -14 -15 -23 -7 -28 8 -5 8 -11 -1 -21 -9 -11 -8
-14 2 -14 14 0 -20 -29 -34 -30 -5 0 -7 33 -5 73 3 47 8 71 16 70 6 -2 9 4 5
13 -3 9 0 20 8 25 12 7 12 9 0 9 -12 0 -11 3 2 18 9 9 30 32 46 49 32 35 77
63 149 94 27 12 40 14 36 6 -6 -8 -3 -8 9 1 9 8 21 11 27 7 5 -3 10 -2 10 3 0
5 12 8 28 7 15 -1 33 2 40 8 8 6 12 5 12 -3 0 -10 3 -10 15 0 10 8 15 9 15 1
0 -7 8 -8 25 -1 14 5 25 6 25 2 0 -4 16 -8 35 -8 69 -3 76 -4 70 -14 -3 -6 1
-7 9 -4 9 3 13 11 10 16 -4 6 6 2 20 -7 15 -10 40 -18 57 -17 16 0 29 -4 29
-9 0 -5 11 -9 25 -9 14 0 25 -5 25 -11 0 -5 4 -8 9 -5 5 4 12 0 14 -6 4 -9 6
-9 6 1 1 11 5 10 17 -5 8 -10 12 -12 8 -4 -7 13 -6 13 10 1 10 -8 26 -15 35
-16 17 -1 21 7 22 48 0 9 4 15 10 12 5 -4 9 -1 9 4 0 20 44 111 53 111 5 0 3
8 -4 17 -10 12 -10 15 -1 9 10 -6 10 -2 1 18 -7 14 -15 24 -19 21 -3 -2 -29
16 -56 40 -27 25 -53 45 -57 45 -5 0 -5 5 -2 10 3 6 -1 10 -10 10 -10 0 -13 5
-9 12 4 6 3 8 -3 5 -12 -7 -94 69 -84 78 3 4 1 6 -4 5 -24 -5 -36 2 -47 25 -6
13 -15 22 -19 19 -5 -3 -9 -1 -9 5 0 5 -9 13 -20 16 -11 4 -18 11 -15 16 4 5
-1 9 -10 9 -10 0 -13 5 -9 12 4 6 3 8 -4 4 -5 -3 -12 0 -15 6 -3 7 -4 3 -4 -9z"/>
</g>
</svg>
